# xmcd
#
# Track frame offsets:
#	150
#	21850
#	43782
#	61227
#	80215
#	98017
#	117360
#	138520
#	159225
#	177857
#	195580
#	210933
#	227818
#	247558
#	268898
#	286763
#	302833
#	321131
#	339603
#
# Disc length: 4709 seconds
#
# Revision: 1
# Processed by: cddbd v1.4PL0 Copyright (c) Steve Scherf et al.
# Submitted via: EasyCDDAExtractor 5.0.6
#
DISCID=04126313
DTITLE=关淑仪 - 冷火
DYEAR=2002
DGENRE=Pop
TTITLE0=冷火
TTITLE1=提醒我的伤心
TTITLE2=记号
TTITLE3=是谁
TTITLE4=我不会唱歌
TTITLE5=夜凉如水
TTITLE6=这些年
TTITLE7=突然不爱你
TTITLE8=复活
TTITLE9=微笑地想你
TTITLE10=忘记他
TTITLE11=难得有情人
TTITLE12=恋一世的爱
TTITLE13=无尽的爱
TTITLE14=一切也愿意
TTITLE15=夜靠谁
TTITLE16=Dela
TTITLE17=地老天荒
TTITLE18=连续星光下
EXTD=
EXTT0=
EXTT1=
EXTT2=
EXTT3=
EXTT4=
EXTT5=
EXTT6=
EXTT7=
EXTT8=
EXTT9=
EXTT10=
EXTT11=
EXTT12=
EXTT13=
EXTT14=
EXTT15=
EXTT16=
EXTT17=
EXTT18=
PLAYORDER=
